<svg width="13" height="13" viewBox="0 0 13 13" fill="none" xmlns="http://www.w3.org/2000/svg">
<path d="M9.50453 10.084C11.6605 10.084 12.8505 7.872 12.8505 5.632C12.8505 2.776 10.8625 0.816 7.57253 0.816C3.27453 0.816 0.138531 3.994 0.138531 8.166C0.138531 11.092 2.19653 12.982 5.34653 12.982C6.39653 12.982 7.40453 12.8 8.30053 12.422L8.02053 11.134C7.30653 11.47 6.43853 11.624 5.62653 11.624C3.12053 11.624 1.67853 10.336 1.67853 8.012C1.67853 4.708 4.07253 2.146 7.36253 2.146C9.89653 2.146 11.3245 3.448 11.3245 5.702C11.3245 7.032 10.8485 8.796 9.78453 8.796C9.15453 8.796 9.09853 8.348 9.21053 7.634L9.86853 3.854H8.23053L8.10453 4.582C7.81053 4.036 7.26453 3.742 6.45253 3.742C4.45053 3.742 3.07853 5.632 3.07853 7.718C3.07853 9.174 3.91853 10.098 5.34653 10.098C6.31253 10.098 7.20853 9.65 7.75453 8.922C7.92253 9.65 8.51053 10.084 9.50453 10.084ZM7.79653 6.514C7.79653 7.648 6.98453 8.642 5.96253 8.642C5.19253 8.642 4.84253 8.124 4.84253 7.396C4.84253 6.29 5.51453 5.198 6.57853 5.198C7.36253 5.198 7.79653 5.758 7.79653 6.514Z" fill="#3A893E"/>
</svg>
