<svg width="14" height="14" viewBox="0 0 14 14" fill="none" xmlns="http://www.w3.org/2000/svg">
<path d="M0.583252 12.8333H13.4166" stroke="#3A893E" stroke-miterlimit="10" stroke-linecap="round" stroke-linejoin="round"/>
<path d="M11.5383 12.8392V10.2375" stroke="#3A893E" stroke-miterlimit="10" stroke-linecap="round" stroke-linejoin="round"/>
<path d="M11.5499 6.35251C10.8383 6.35251 10.2666 6.92418 10.2666 7.63585V8.95999C10.2666 9.67166 10.8383 10.2433 11.5499 10.2433C12.2616 10.2433 12.8333 9.67166 12.8333 8.95999V7.63585C12.8333 6.92418 12.2616 6.35251 11.5499 6.35251Z" stroke="#3A893E" stroke-miterlimit="10" stroke-linecap="round" stroke-linejoin="round"/>
<path d="M1.2251 12.8333V3.51751C1.2251 2.34501 1.80846 1.75583 2.96929 1.75583H6.60345C7.76428 1.75583 8.34177 2.34501 8.34177 3.51751V12.8333" stroke="#3A893E" stroke-miterlimit="10" stroke-linecap="round" stroke-linejoin="round"/>
<path d="M3.3833 4.8125H6.27081" stroke="#3A893E" stroke-miterlimit="10" stroke-linecap="round" stroke-linejoin="round"/>
<path d="M3.3833 7H6.27081" stroke="#3A893E" stroke-miterlimit="10" stroke-linecap="round" stroke-linejoin="round"/>
<path d="M4.8125 12.8333V10.6458" stroke="#3A893E" stroke-miterlimit="10" stroke-linecap="round" stroke-linejoin="round"/>
</svg>
