<svg width="27" height="27" viewBox="0 0 27 27" fill="none" xmlns="http://www.w3.org/2000/svg">
<path d="M9 2.25V5.625" stroke="#3A893E" stroke-width="1.5" stroke-miterlimit="10" stroke-linecap="round" stroke-linejoin="round"/>
<path d="M18 2.25V5.625" stroke="#3A893E" stroke-width="1.5" stroke-miterlimit="10" stroke-linecap="round" stroke-linejoin="round"/>
<path d="M3.9375 10.2262H23.0625" stroke="#3A893E" stroke-width="1.5" stroke-miterlimit="10" stroke-linecap="round" stroke-linejoin="round"/>
<path d="M24.75 21.375C24.75 22.2188 24.5137 23.0175 24.0975 23.6925C23.3212 24.9975 21.8925 25.875 20.25 25.875C19.1138 25.875 18.0788 25.4587 17.2913 24.75C16.9425 24.4575 16.6388 24.0975 16.4025 23.6925C15.9863 23.0175 15.75 22.2188 15.75 21.375C15.75 18.8887 17.7637 16.875 20.25 16.875C21.6 16.875 22.8037 17.4712 23.625 18.405C24.3225 19.2037 24.75 20.2388 24.75 21.375Z" stroke="#3A893E" stroke-width="1.5" stroke-miterlimit="10" stroke-linecap="round" stroke-linejoin="round"/>
<path d="M18.4949 21.375L19.6086 22.4888L22.0049 20.2725" stroke="#3A893E" stroke-width="1.5" stroke-linecap="round" stroke-linejoin="round"/>
<path d="M23.625 9.5625V18.405C22.8037 17.4712 21.6 16.875 20.25 16.875C17.7637 16.875 15.75 18.8887 15.75 21.375C15.75 22.2188 15.9863 23.0175 16.4025 23.6925C16.6388 24.0975 16.9425 24.4575 17.2913 24.75H9C5.0625 24.75 3.375 22.5 3.375 19.125V9.5625C3.375 6.1875 5.0625 3.9375 9 3.9375H18C21.9375 3.9375 23.625 6.1875 23.625 9.5625Z" stroke="#3A893E" stroke-width="1.5" stroke-miterlimit="10" stroke-linecap="round" stroke-linejoin="round"/>
<path d="M13.4948 15.4125H13.5049" stroke="#3A893E" stroke-width="2" stroke-linecap="round" stroke-linejoin="round"/>
<path d="M9.33122 15.4125H9.34133" stroke="#3A893E" stroke-width="2" stroke-linecap="round" stroke-linejoin="round"/>
<path d="M9.33122 18.7875H9.34133" stroke="#3A893E" stroke-width="2" stroke-linecap="round" stroke-linejoin="round"/>
</svg>
