<svg width="21" height="21" viewBox="0 0 21 21" fill="none" xmlns="http://www.w3.org/2000/svg">
<path d="M5.91515 19.2499H15.0851C17.5001 19.2499 18.4626 17.7712 18.5764 15.9687L19.0314 8.74119C19.1539 6.85119 17.6489 5.24994 15.7501 5.24994C15.2164 5.24994 14.7264 4.94369 14.4814 4.47119L13.8514 3.20244C13.4489 2.40619 12.3989 1.74994 11.5064 1.74994H9.50265C8.6014 1.74994 7.5514 2.40619 7.1489 3.20244L6.5189 4.47119C6.2739 4.94369 5.7839 5.24994 5.25015 5.24994C3.3514 5.24994 1.8464 6.85119 1.9689 8.74119L2.4239 15.9687C2.5289 17.7712 3.50015 19.2499 5.91515 19.2499Z" stroke="white" stroke-width="1.5" stroke-linecap="round" stroke-linejoin="round"/>
<path d="M9.1875 6.99994H11.8125" stroke="white" stroke-width="1.5" stroke-linecap="round" stroke-linejoin="round"/>
<path d="M10.5 15.7501C12.0663 15.7501 13.3438 14.4726 13.3438 12.9063C13.3438 11.3401 12.0663 10.0626 10.5 10.0626C8.93375 10.0626 7.65625 11.3401 7.65625 12.9063C7.65625 14.4726 8.93375 15.7501 10.5 15.7501Z" stroke="white" stroke-width="1.5" stroke-linecap="round" stroke-linejoin="round"/>
</svg>
