<svg width="30" height="31" viewBox="0 0 30 31" fill="none" xmlns="http://www.w3.org/2000/svg">
<path d="M22.5 8.4209C21.7375 8.4209 21.0375 7.9834 20.6875 7.3084L19.7875 5.4959C19.2125 4.3584 17.7125 3.4209 16.4375 3.4209H13.575C12.2875 3.4209 10.7875 4.3584 10.2125 5.4959L9.31246 7.3084C8.96246 7.9834 8.26247 8.4209 7.49997 8.4209C4.78747 8.4209 2.63747 10.7084 2.81247 13.4084L3.46247 23.7334C3.61247 26.3084 4.99997 28.4209 8.44997 28.4209H21.55C25 28.4209 26.375 26.3084 26.5375 23.7334L27.1875 13.4084C27.3625 10.7084 25.2125 8.4209 22.5 8.4209ZM13.125 9.9834H16.875C17.3875 9.9834 17.8125 10.4084 17.8125 10.9209C17.8125 11.4334 17.3875 11.8584 16.875 11.8584H13.125C12.6125 11.8584 12.1875 11.4334 12.1875 10.9209C12.1875 10.4084 12.6125 9.9834 13.125 9.9834ZM15 23.5709C12.675 23.5709 10.775 21.6834 10.775 19.3459C10.775 17.0084 12.6625 15.1209 15 15.1209C17.3375 15.1209 19.225 17.0084 19.225 19.3459C19.225 21.6834 17.325 23.5709 15 23.5709Z" fill="#8D79F3"/>
</svg>
