<svg width="14" height="14" viewBox="0 0 14 14" fill="none" xmlns="http://www.w3.org/2000/svg">
<path d="M2.9165 5.83335H4.08317C5.24984 5.83335 5.83317 5.25002 5.83317 4.08335V2.91669C5.83317 1.75002 5.24984 1.16669 4.08317 1.16669H2.9165C1.74984 1.16669 1.1665 1.75002 1.1665 2.91669V4.08335C1.1665 5.25002 1.74984 5.83335 2.9165 5.83335Z" stroke="#3A893E" stroke-miterlimit="10" stroke-linecap="round" stroke-linejoin="round"/>
<path d="M9.9165 5.83335H11.0832C12.2498 5.83335 12.8332 5.25002 12.8332 4.08335V2.91669C12.8332 1.75002 12.2498 1.16669 11.0832 1.16669H9.9165C8.74984 1.16669 8.1665 1.75002 8.1665 2.91669V4.08335C8.1665 5.25002 8.74984 5.83335 9.9165 5.83335Z" stroke="#3A893E" stroke-miterlimit="10" stroke-linecap="round" stroke-linejoin="round"/>
<path d="M9.9165 12.8334H11.0832C12.2498 12.8334 12.8332 12.25 12.8332 11.0834V9.91669C12.8332 8.75002 12.2498 8.16669 11.0832 8.16669H9.9165C8.74984 8.16669 8.1665 8.75002 8.1665 9.91669V11.0834C8.1665 12.25 8.74984 12.8334 9.9165 12.8334Z" stroke="#3A893E" stroke-miterlimit="10" stroke-linecap="round" stroke-linejoin="round"/>
<path d="M2.9165 12.8334H4.08317C5.24984 12.8334 5.83317 12.25 5.83317 11.0834V9.91669C5.83317 8.75002 5.24984 8.16669 4.08317 8.16669H2.9165C1.74984 8.16669 1.1665 8.75002 1.1665 9.91669V11.0834C1.1665 12.25 1.74984 12.8334 2.9165 12.8334Z" stroke="#3A893E" stroke-miterlimit="10" stroke-linecap="round" stroke-linejoin="round"/>
</svg>
