<svg width="19" height="20" viewBox="0 0 19 20" fill="none" xmlns="http://www.w3.org/2000/svg">
<path d="M13.2749 8.48486H14.7901C16.3052 8.48486 17.0628 7.72729 17.0628 6.21213V4.69698C17.0628 3.18183 16.3052 2.42426 14.7901 2.42426H13.2749C11.7598 2.42426 11.0022 3.18183 11.0022 4.69698V6.21213C11.0022 7.72729 11.7598 8.48486 13.2749 8.48486Z" stroke="#232527" stroke-width="1.5" stroke-miterlimit="10" stroke-linecap="round" stroke-linejoin="round"/>
<path d="M4.1841 17.5758H5.69926C7.21441 17.5758 7.97198 16.8182 7.97198 15.3031V13.7879C7.97198 12.2728 7.21441 11.5152 5.69926 11.5152H4.1841C2.66895 11.5152 1.91138 12.2728 1.91138 13.7879V15.3031C1.91138 16.8182 2.66895 17.5758 4.1841 17.5758Z" stroke="#232527" stroke-width="1.5" stroke-miterlimit="10" stroke-linecap="round" stroke-linejoin="round"/>
<path d="M4.94168 8.48486C6.61527 8.48486 7.97198 7.12815 7.97198 5.45456C7.97198 3.78097 6.61527 2.42426 4.94168 2.42426C3.26809 2.42426 1.91138 3.78097 1.91138 5.45456C1.91138 7.12815 3.26809 8.48486 4.94168 8.48486Z" stroke="#232527" stroke-width="1.5" stroke-miterlimit="10" stroke-linecap="round" stroke-linejoin="round"/>
<path d="M14.0325 17.5758C15.7061 17.5758 17.0628 16.2191 17.0628 14.5455C17.0628 12.8719 15.7061 11.5152 14.0325 11.5152C12.3589 11.5152 11.0022 12.8719 11.0022 14.5455C11.0022 16.2191 12.3589 17.5758 14.0325 17.5758Z" stroke="#232527" stroke-width="1.5" stroke-miterlimit="10" stroke-linecap="round" stroke-linejoin="round"/>
</svg>
