<svg width="21" height="21" viewBox="0 0 21 21" fill="none" xmlns="http://www.w3.org/2000/svg">
<path d="M17.4125 11.8125H3.5875C2.275 11.8125 1.75 12.3725 1.75 13.7638V17.2988C1.75 18.69 2.275 19.25 3.5875 19.25H17.4125C18.725 19.25 19.25 18.69 19.25 17.2988V13.7638C19.25 12.3725 18.725 11.8125 17.4125 11.8125Z" stroke="white" stroke-width="1.5" stroke-linecap="round" stroke-linejoin="round"/>
<path d="M11.2875 1.75H3.5875C2.275 1.75 1.75 2.31 1.75 3.70125V7.23625C1.75 8.6275 2.275 9.1875 3.5875 9.1875H11.2875C12.6 9.1875 13.125 8.6275 13.125 7.23625V3.70125C13.125 2.31 12.6 1.75 11.2875 1.75Z" stroke="white" stroke-width="1.5" stroke-linecap="round" stroke-linejoin="round"/>
</svg>
