<svg width="22" height="22" viewBox="0 0 22 22" fill="none" xmlns="http://www.w3.org/2000/svg">
<path d="M18.2416 12.375H3.75825C2.38325 12.375 1.83325 12.9617 1.83325 14.4192V18.1225C1.83325 19.58 2.38325 20.1667 3.75825 20.1667H18.2416C19.6166 20.1667 20.1666 19.58 20.1666 18.1225V14.4192C20.1666 12.9617 19.6166 12.375 18.2416 12.375Z" stroke="#3A893E" stroke-width="1.5" stroke-linecap="round" stroke-linejoin="round"/>
<path d="M11.8249 1.83331H3.75825C2.38325 1.83331 1.83325 2.41998 1.83325 3.87748V7.58081C1.83325 9.03831 2.38325 9.62498 3.75825 9.62498H11.8249C13.1999 9.62498 13.7499 9.03831 13.7499 7.58081V3.87748C13.7499 2.41998 13.1999 1.83331 11.8249 1.83331Z" stroke="#3A893E" stroke-width="1.5" stroke-linecap="round" stroke-linejoin="round"/>
</svg>
