<svg width="31" height="31" viewBox="0 0 31 31" fill="none" xmlns="http://www.w3.org/2000/svg">
<path d="M3.85488 24.6834L3.82988 24.7084C3.49238 23.9709 3.27988 23.1334 3.19238 22.2084C3.27988 23.1209 3.51738 23.9459 3.85488 24.6834Z" fill="#F48F31"/>
<path d="M11.8798 13.8959C13.5228 13.8959 14.8548 12.5639 14.8548 10.9209C14.8548 9.27785 13.5228 7.9459 11.8798 7.9459C10.2367 7.9459 8.90479 9.27785 8.90479 10.9209C8.90479 12.5639 10.2367 13.8959 11.8798 13.8959Z" fill="#F48F31"/>
<path d="M20.8674 3.4209H10.3924C5.84238 3.4209 3.12988 6.1334 3.12988 10.6834V21.1584C3.12988 22.5209 3.36738 23.7084 3.82988 24.7084C4.90488 27.0834 7.20488 28.4209 10.3924 28.4209H20.8674C25.4174 28.4209 28.1299 25.7084 28.1299 21.1584V18.2959V10.6834C28.1299 6.1334 25.4174 3.4209 20.8674 3.4209ZM26.0924 16.5459C25.1174 15.7084 23.5424 15.7084 22.5674 16.5459L17.3674 21.0084C16.3924 21.8459 14.8174 21.8459 13.8424 21.0084L13.4174 20.6584C12.5299 19.8834 11.1174 19.8084 10.1174 20.4834L5.44238 23.6209C5.16738 22.9209 5.00488 22.1084 5.00488 21.1584V10.6834C5.00488 7.1584 6.86738 5.2959 10.3924 5.2959H20.8674C24.3924 5.2959 26.2549 7.1584 26.2549 10.6834V16.6834L26.0924 16.5459Z" fill="#F48F31"/>
</svg>
