<svg width="18" height="18" viewBox="0 0 18 18" fill="none" xmlns="http://www.w3.org/2000/svg">
<path d="M6.74994 16.5H11.2499C14.9999 16.5 16.4999 15 16.4999 11.25V6.75003C16.4999 3.00003 14.9999 1.50003 11.2499 1.50003H6.74994C2.99994 1.50003 1.49994 3.00003 1.49994 6.75003V11.25C1.49994 15 2.99994 16.5 6.74994 16.5Z" stroke="#3A893E" stroke-width="1.5" stroke-linecap="round" stroke-linejoin="round"/>
<path d="M6.75006 7.5C7.57849 7.5 8.25006 6.82843 8.25006 6C8.25006 5.17157 7.57849 4.5 6.75006 4.5C5.92163 4.5 5.25006 5.17157 5.25006 6C5.25006 6.82843 5.92163 7.5 6.75006 7.5Z" stroke="#3A893E" stroke-width="1.5" stroke-linecap="round" stroke-linejoin="round"/>
<path d="M2.00256 14.2125L5.70006 11.73C6.29256 11.3325 7.14756 11.3775 7.68006 11.835L7.92756 12.0525C8.51256 12.555 9.45756 12.555 10.0426 12.0525L13.1626 9.37501C13.7476 8.87251 14.6926 8.87251 15.2776 9.37501L16.5001 10.425" stroke="#3A893E" stroke-width="1.5" stroke-linecap="round" stroke-linejoin="round"/>
</svg>
