<svg width="35" height="29" viewBox="0 0 35 29" fill="none" xmlns="http://www.w3.org/2000/svg">
<path d="M7.16674 11.8C6.30674 11.8 5.7334 11.2267 5.7334 10.3667C5.7334 4.77662 10.1768 0.333252 15.7668 0.333252C20.0668 0.333252 23.9369 3.19994 25.3702 7.35663C25.5135 8.07331 25.2269 8.93331 24.3669 9.07665C23.6502 9.36332 22.7902 8.93331 22.5035 8.21664C21.6435 5.20662 18.9202 3.19994 15.7668 3.19994C11.7534 3.19994 8.60009 6.35329 8.60009 10.3667C8.60009 11.2267 8.02675 11.8 7.16674 11.8Z" fill="#3A893E"/>
<path d="M25.8002 23.2666C24.9402 23.2666 24.3669 22.6933 24.3669 21.8333C24.3669 20.9733 24.9402 20.4 25.8002 20.4C28.9536 20.4 31.5336 17.8199 31.5336 14.6666C31.5336 11.5132 28.9536 8.93321 25.8002 8.93321C25.3702 8.93321 24.7969 8.93322 24.3669 9.07655C23.6502 9.21988 22.7902 8.78988 22.6468 8.07321C22.5035 7.35654 22.9335 6.49653 23.6502 6.3532C24.3669 6.20986 25.0835 6.06653 25.8002 6.06653C30.5302 6.06653 34.4003 9.93656 34.4003 14.6666C34.4003 19.3966 30.5302 23.2666 25.8002 23.2666ZM11.4668 23.2666H7.16674C6.30674 23.2666 5.7334 22.6933 5.7334 21.8333C5.7334 20.9733 6.30674 20.4 7.16674 20.4H11.4668C12.3268 20.4 12.9001 20.9733 12.9001 21.8333C12.9001 22.6933 12.3268 23.2666 11.4668 23.2666Z" fill="#3A893E"/>
<path d="M25.8002 23.2667H22.9335C22.0735 23.2667 21.5002 22.6934 21.5002 21.8334C21.5002 20.9734 22.0735 20.4 22.9335 20.4H25.8002C26.6602 20.4 27.2335 20.9734 27.2335 21.8334C27.2335 22.6934 26.6602 23.2667 25.8002 23.2667ZM7.16672 23.2667C3.15336 23.2667 0 20.1134 0 16.1C0 12.0866 3.15336 8.93329 7.16672 8.93329C8.02672 8.93329 8.60006 9.50663 8.60006 10.3666C8.60006 11.2266 8.02672 11.8 7.16672 11.8C4.73003 11.8 2.86669 13.6633 2.86669 16.1C2.86669 18.5367 4.73003 20.4 7.16672 20.4C8.02672 20.4 8.60006 20.9734 8.60006 21.8334C8.60006 22.6934 8.02672 23.2667 7.16672 23.2667ZM17.2001 29.0001C16.3401 29.0001 15.7668 28.4268 15.7668 27.5668V13.2333C15.7668 12.3733 16.3401 11.8 17.2001 11.8C18.0601 11.8 18.6335 12.3733 18.6335 13.2333V27.5668C18.6335 28.4268 18.0601 29.0001 17.2001 29.0001Z" fill="#3A893E"/>
<path d="M12.8999 18.9666C12.4699 18.9666 12.1832 18.8233 11.8966 18.5366C11.3232 17.9633 11.3232 17.1033 11.8966 16.53L16.1966 12.2299C16.7699 11.6566 17.6299 11.6566 18.2033 12.2299C18.7766 12.8033 18.7766 13.6633 18.2033 14.2366L13.9032 18.5366C13.6166 18.8233 13.3299 18.9666 12.8999 18.9666Z" fill="#3A893E"/>
<path d="M21.5002 18.9666C21.0702 18.9666 20.7835 18.8233 20.4969 18.5366L16.1968 14.2366C15.6235 13.6633 15.6235 12.8033 16.1968 12.2299C16.7702 11.6566 17.6302 11.6566 18.2035 12.2299L22.5036 16.53C23.0769 17.1033 23.0769 17.9633 22.5036 18.5366C22.2169 18.8233 21.9302 18.9666 21.5002 18.9666Z" fill="#3A893E"/>
</svg>
