<svg width="25" height="26" viewBox="0 0 25 26" fill="none" xmlns="http://www.w3.org/2000/svg">
<mask id="path-1-outside-1_1_1795" maskUnits="userSpaceOnUse" x="0" y="3.92813" width="25" height="22" fill="black">
<rect fill="white" y="3.92813" width="25" height="22"/>
<path d="M23.965 16.8078C21.8934 16.7815 20.2179 16.7685 19.091 16.7632L17.5265 5.5987C17.4979 5.39665 17.3111 5.25408 17.109 5.28381C16.907 5.31202 16.7659 5.49882 16.7941 5.70125L17.1311 8.10487C16.9474 8.00994 16.7423 7.95085 16.522 7.94971L14.6742 7.9398C14.3581 7.93789 14.0516 7.84525 13.7886 7.67103L12.0796 6.54185C10.8509 5.47137 9.39574 5.57392 8.38817 5.84802C8.18269 5.90406 7.9978 5.99136 7.83387 6.10192V6.10116C7.83616 5.78855 7.71569 5.49425 7.49534 5.27199C7.27462 5.0505 6.98107 4.92813 6.66809 4.92813H5.58427C5.24956 4.92813 4.95335 4.99751 4.70403 5.13323C4.17107 5.4241 3.89545 5.95057 3.98542 6.50716C4.03765 6.83463 4.20691 7.11483 4.45089 7.30506L3.84703 7.96114C3.66748 8.15671 3.53253 8.39421 3.45742 8.64963C3.40977 8.81089 3.38575 8.97749 3.38575 9.14522V12.9742C3.38575 13.782 4.04336 14.4526 4.86414 14.4686L6.51102 14.4438C6.67914 14.4412 6.84307 14.4046 6.99556 14.3436C6.95019 14.6623 6.87319 14.9341 6.7451 15.2719L5.00824 19.4249C4.80009 19.9224 4.85423 20.4874 5.15311 20.9368C5.21486 21.0299 5.28768 21.1134 5.36583 21.1904L5.15082 21.1938C5.0254 21.1961 4.9095 21.2613 4.84317 21.368L3.49631 23.5299L1.20173 24.7003C1.0195 24.7929 0.947831 25.0152 1.04047 25.1974C1.10528 25.3247 1.23489 25.3983 1.36946 25.3983C1.4255 25.3983 1.48345 25.3853 1.53682 25.3579L3.9229 24.1414C3.98275 24.1109 4.03345 24.0644 4.06853 24.0072L5.36316 21.9292L9.06598 21.8693L13.9399 21.9726C14.0722 21.9681 14.1656 21.9231 14.2373 21.8327L16.8399 18.5553C17.3721 17.8859 18.1658 17.5024 19.0201 17.5024C19.0247 17.5024 19.0293 17.5024 19.0338 17.5024C20.1592 17.5081 21.8545 17.5207 23.9547 17.5474C23.9562 17.5474 23.9581 17.5474 23.9596 17.5474C24.1617 17.5474 24.3267 17.385 24.3294 17.1826C24.3321 16.9782 24.1689 16.8105 23.965 16.8078ZM6.49921 13.7039L4.86566 13.7287C4.45699 13.7207 4.12495 13.3821 4.12495 12.9739V9.14484C4.12495 9.04801 4.13905 8.95156 4.16612 8.85893C4.20996 8.71177 4.28773 8.57415 4.39142 8.46131L5.22706 7.55285H5.95139C6.15534 7.55285 6.32079 7.3874 6.32079 7.18307C6.32079 6.97873 6.15534 6.81328 5.95139 6.81328H5.1146C4.86376 6.75838 4.74177 6.55329 4.71546 6.3886C4.69678 6.27194 4.69259 5.98069 5.0578 5.78131C5.19771 5.70506 5.3746 5.66618 5.58427 5.66618H6.66809C6.78284 5.66618 6.89034 5.71078 6.97078 5.79236C7.05122 5.87318 7.09544 5.98069 7.0943 6.09506L7.0535 13.1622C7.06075 13.3387 6.98527 13.4572 6.92046 13.5259C6.81638 13.6364 6.66313 13.7012 6.49921 13.7039ZM5.68987 19.7093L7.4313 15.5448C7.71378 14.7991 7.79117 14.3039 7.79117 13.243C7.79117 13.2369 7.78812 13.2319 7.78774 13.2258C7.78812 13.2003 7.79346 13.1748 7.79232 13.1492L7.82548 7.52884C7.82548 7.52884 7.82548 7.52884 7.82548 7.52846C7.82548 7.05193 8.10835 6.68976 8.58297 6.56053C9.41862 6.3318 10.624 6.24259 11.6091 7.11254C11.6221 7.12398 11.6358 7.13465 11.6503 7.1438L13.3803 8.28671C13.7638 8.54022 14.2094 8.67594 14.6696 8.67823L16.5174 8.68814C16.8563 8.69004 17.1319 8.96719 17.1319 9.30648C17.1319 9.64729 16.8544 9.92444 16.5139 9.92444H14.5205C14.2663 9.92444 14.012 9.86345 13.7848 9.74794L11.6274 8.65116C11.5131 8.59321 11.3758 8.59855 11.2668 8.66526C11.1574 8.73274 11.0903 8.85206 11.0903 8.98054V12.7455C11.0903 12.8313 11.12 12.914 11.1745 12.9799L13.0334 15.2421C13.4859 15.7663 13.6704 16.4567 13.5366 17.1521L13.0654 20.2952C13.0029 20.6235 12.7372 20.8694 12.4055 20.9079C12.1684 20.9323 11.9389 20.853 11.7734 20.6833C11.6072 20.5133 11.5306 20.2811 11.5641 20.0406L11.7799 18.3144C11.9088 17.3922 11.6103 16.4811 10.9603 15.8143L10.1925 15.0267C10.1067 14.9391 9.98283 14.8975 9.8616 14.9211C9.74075 14.9429 9.63858 15.0241 9.58902 15.1361L7.28719 20.3925C7.14881 20.7085 6.83621 20.9128 6.4912 20.9128C6.19537 20.9128 5.93156 20.7714 5.76802 20.5251C5.60448 20.2789 5.5755 19.9823 5.68987 19.7093ZM7.65203 21.1526C7.77974 21.0188 7.888 20.8652 7.96501 20.6898L10.0465 15.9363L10.4315 16.3313C10.9199 16.8326 11.1452 17.518 11.0476 18.218L10.8318 19.9441C10.7685 20.3967 10.9138 20.8423 11.2249 21.1751L9.06827 21.1294L7.65203 21.1526ZM16.2616 18.0952L13.7729 21.2292L13.3685 21.2209C13.5812 21.0108 13.7341 20.7367 13.7947 20.4207L14.2659 17.2775C14.4393 16.374 14.1942 15.4564 13.5991 14.7667L11.8299 12.614V9.58439L13.4501 10.4078C13.7802 10.5756 14.1507 10.6648 14.5209 10.6648H16.5143C16.8719 10.6648 17.1952 10.523 17.438 10.2961L18.3533 16.8307C17.5333 16.987 16.7934 17.4254 16.2616 18.0952Z"/>
</mask>
<path d="M23.965 16.8078C21.8934 16.7815 20.2179 16.7685 19.091 16.7632L17.5265 5.5987C17.4979 5.39665 17.3111 5.25408 17.109 5.28381C16.907 5.31202 16.7659 5.49882 16.7941 5.70125L17.1311 8.10487C16.9474 8.00994 16.7423 7.95085 16.522 7.94971L14.6742 7.9398C14.3581 7.93789 14.0516 7.84525 13.7886 7.67103L12.0796 6.54185C10.8509 5.47137 9.39574 5.57392 8.38817 5.84802C8.18269 5.90406 7.9978 5.99136 7.83387 6.10192V6.10116C7.83616 5.78855 7.71569 5.49425 7.49534 5.27199C7.27462 5.0505 6.98107 4.92813 6.66809 4.92813H5.58427C5.24956 4.92813 4.95335 4.99751 4.70403 5.13323C4.17107 5.4241 3.89545 5.95057 3.98542 6.50716C4.03765 6.83463 4.20691 7.11483 4.45089 7.30506L3.84703 7.96114C3.66748 8.15671 3.53253 8.39421 3.45742 8.64963C3.40977 8.81089 3.38575 8.97749 3.38575 9.14522V12.9742C3.38575 13.782 4.04336 14.4526 4.86414 14.4686L6.51102 14.4438C6.67914 14.4412 6.84307 14.4046 6.99556 14.3436C6.95019 14.6623 6.87319 14.9341 6.7451 15.2719L5.00824 19.4249C4.80009 19.9224 4.85423 20.4874 5.15311 20.9368C5.21486 21.0299 5.28768 21.1134 5.36583 21.1904L5.15082 21.1938C5.0254 21.1961 4.9095 21.2613 4.84317 21.368L3.49631 23.5299L1.20173 24.7003C1.0195 24.7929 0.947831 25.0152 1.04047 25.1974C1.10528 25.3247 1.23489 25.3983 1.36946 25.3983C1.4255 25.3983 1.48345 25.3853 1.53682 25.3579L3.9229 24.1414C3.98275 24.1109 4.03345 24.0644 4.06853 24.0072L5.36316 21.9292L9.06598 21.8693L13.9399 21.9726C14.0722 21.9681 14.1656 21.9231 14.2373 21.8327L16.8399 18.5553C17.3721 17.8859 18.1658 17.5024 19.0201 17.5024C19.0247 17.5024 19.0293 17.5024 19.0338 17.5024C20.1592 17.5081 21.8545 17.5207 23.9547 17.5474C23.9562 17.5474 23.9581 17.5474 23.9596 17.5474C24.1617 17.5474 24.3267 17.385 24.3294 17.1826C24.3321 16.9782 24.1689 16.8105 23.965 16.8078ZM6.49921 13.7039L4.86566 13.7287C4.45699 13.7207 4.12495 13.3821 4.12495 12.9739V9.14484C4.12495 9.04801 4.13905 8.95156 4.16612 8.85893C4.20996 8.71177 4.28773 8.57415 4.39142 8.46131L5.22706 7.55285H5.95139C6.15534 7.55285 6.32079 7.3874 6.32079 7.18307C6.32079 6.97873 6.15534 6.81328 5.95139 6.81328H5.1146C4.86376 6.75838 4.74177 6.55329 4.71546 6.3886C4.69678 6.27194 4.69259 5.98069 5.0578 5.78131C5.19771 5.70506 5.3746 5.66618 5.58427 5.66618H6.66809C6.78284 5.66618 6.89034 5.71078 6.97078 5.79236C7.05122 5.87318 7.09544 5.98069 7.0943 6.09506L7.0535 13.1622C7.06075 13.3387 6.98527 13.4572 6.92046 13.5259C6.81638 13.6364 6.66313 13.7012 6.49921 13.7039ZM5.68987 19.7093L7.4313 15.5448C7.71378 14.7991 7.79117 14.3039 7.79117 13.243C7.79117 13.2369 7.78812 13.2319 7.78774 13.2258C7.78812 13.2003 7.79346 13.1748 7.79232 13.1492L7.82548 7.52884C7.82548 7.52884 7.82548 7.52884 7.82548 7.52846C7.82548 7.05193 8.10835 6.68976 8.58297 6.56053C9.41862 6.3318 10.624 6.24259 11.6091 7.11254C11.6221 7.12398 11.6358 7.13465 11.6503 7.1438L13.3803 8.28671C13.7638 8.54022 14.2094 8.67594 14.6696 8.67823L16.5174 8.68814C16.8563 8.69004 17.1319 8.96719 17.1319 9.30648C17.1319 9.64729 16.8544 9.92444 16.5139 9.92444H14.5205C14.2663 9.92444 14.012 9.86345 13.7848 9.74794L11.6274 8.65116C11.5131 8.59321 11.3758 8.59855 11.2668 8.66526C11.1574 8.73274 11.0903 8.85206 11.0903 8.98054V12.7455C11.0903 12.8313 11.12 12.914 11.1745 12.9799L13.0334 15.2421C13.4859 15.7663 13.6704 16.4567 13.5366 17.1521L13.0654 20.2952C13.0029 20.6235 12.7372 20.8694 12.4055 20.9079C12.1684 20.9323 11.9389 20.853 11.7734 20.6833C11.6072 20.5133 11.5306 20.2811 11.5641 20.0406L11.7799 18.3144C11.9088 17.3922 11.6103 16.4811 10.9603 15.8143L10.1925 15.0267C10.1067 14.9391 9.98283 14.8975 9.8616 14.9211C9.74075 14.9429 9.63858 15.0241 9.58902 15.1361L7.28719 20.3925C7.14881 20.7085 6.83621 20.9128 6.4912 20.9128C6.19537 20.9128 5.93156 20.7714 5.76802 20.5251C5.60448 20.2789 5.5755 19.9823 5.68987 19.7093ZM7.65203 21.1526C7.77974 21.0188 7.888 20.8652 7.96501 20.6898L10.0465 15.9363L10.4315 16.3313C10.9199 16.8326 11.1452 17.518 11.0476 18.218L10.8318 19.9441C10.7685 20.3967 10.9138 20.8423 11.2249 21.1751L9.06827 21.1294L7.65203 21.1526ZM16.2616 18.0952L13.7729 21.2292L13.3685 21.2209C13.5812 21.0108 13.7341 20.7367 13.7947 20.4207L14.2659 17.2775C14.4393 16.374 14.1942 15.4564 13.5991 14.7667L11.8299 12.614V9.58439L13.4501 10.4078C13.7802 10.5756 14.1507 10.6648 14.5209 10.6648H16.5143C16.8719 10.6648 17.1952 10.523 17.438 10.2961L18.3533 16.8307C17.5333 16.987 16.7934 17.4254 16.2616 18.0952Z" fill="#3A893E"/>
<path d="M23.965 16.8078C21.8934 16.7815 20.2179 16.7685 19.091 16.7632L17.5265 5.5987C17.4979 5.39665 17.3111 5.25408 17.109 5.28381C16.907 5.31202 16.7659 5.49882 16.7941 5.70125L17.1311 8.10487C16.9474 8.00994 16.7423 7.95085 16.522 7.94971L14.6742 7.9398C14.3581 7.93789 14.0516 7.84525 13.7886 7.67103L12.0796 6.54185C10.8509 5.47137 9.39574 5.57392 8.38817 5.84802C8.18269 5.90406 7.9978 5.99136 7.83387 6.10192V6.10116C7.83616 5.78855 7.71569 5.49425 7.49534 5.27199C7.27462 5.0505 6.98107 4.92813 6.66809 4.92813H5.58427C5.24956 4.92813 4.95335 4.99751 4.70403 5.13323C4.17107 5.4241 3.89545 5.95057 3.98542 6.50716C4.03765 6.83463 4.20691 7.11483 4.45089 7.30506L3.84703 7.96114C3.66748 8.15671 3.53253 8.39421 3.45742 8.64963C3.40977 8.81089 3.38575 8.97749 3.38575 9.14522V12.9742C3.38575 13.782 4.04336 14.4526 4.86414 14.4686L6.51102 14.4438C6.67914 14.4412 6.84307 14.4046 6.99556 14.3436C6.95019 14.6623 6.87319 14.9341 6.7451 15.2719L5.00824 19.4249C4.80009 19.9224 4.85423 20.4874 5.15311 20.9368C5.21486 21.0299 5.28768 21.1134 5.36583 21.1904L5.15082 21.1938C5.0254 21.1961 4.9095 21.2613 4.84317 21.368L3.49631 23.5299L1.20173 24.7003C1.0195 24.7929 0.947831 25.0152 1.04047 25.1974C1.10528 25.3247 1.23489 25.3983 1.36946 25.3983C1.4255 25.3983 1.48345 25.3853 1.53682 25.3579L3.9229 24.1414C3.98275 24.1109 4.03345 24.0644 4.06853 24.0072L5.36316 21.9292L9.06598 21.8693L13.9399 21.9726C14.0722 21.9681 14.1656 21.9231 14.2373 21.8327L16.8399 18.5553C17.3721 17.8859 18.1658 17.5024 19.0201 17.5024C19.0247 17.5024 19.0293 17.5024 19.0338 17.5024C20.1592 17.5081 21.8545 17.5207 23.9547 17.5474C23.9562 17.5474 23.9581 17.5474 23.9596 17.5474C24.1617 17.5474 24.3267 17.385 24.3294 17.1826C24.3321 16.9782 24.1689 16.8105 23.965 16.8078ZM6.49921 13.7039L4.86566 13.7287C4.45699 13.7207 4.12495 13.3821 4.12495 12.9739V9.14484C4.12495 9.04801 4.13905 8.95156 4.16612 8.85893C4.20996 8.71177 4.28773 8.57415 4.39142 8.46131L5.22706 7.55285H5.95139C6.15534 7.55285 6.32079 7.3874 6.32079 7.18307C6.32079 6.97873 6.15534 6.81328 5.95139 6.81328H5.1146C4.86376 6.75838 4.74177 6.55329 4.71546 6.3886C4.69678 6.27194 4.69259 5.98069 5.0578 5.78131C5.19771 5.70506 5.3746 5.66618 5.58427 5.66618H6.66809C6.78284 5.66618 6.89034 5.71078 6.97078 5.79236C7.05122 5.87318 7.09544 5.98069 7.0943 6.09506L7.0535 13.1622C7.06075 13.3387 6.98527 13.4572 6.92046 13.5259C6.81638 13.6364 6.66313 13.7012 6.49921 13.7039ZM5.68987 19.7093L7.4313 15.5448C7.71378 14.7991 7.79117 14.3039 7.79117 13.243C7.79117 13.2369 7.78812 13.2319 7.78774 13.2258C7.78812 13.2003 7.79346 13.1748 7.79232 13.1492L7.82548 7.52884C7.82548 7.52884 7.82548 7.52884 7.82548 7.52846C7.82548 7.05193 8.10835 6.68976 8.58297 6.56053C9.41862 6.3318 10.624 6.24259 11.6091 7.11254C11.6221 7.12398 11.6358 7.13465 11.6503 7.1438L13.3803 8.28671C13.7638 8.54022 14.2094 8.67594 14.6696 8.67823L16.5174 8.68814C16.8563 8.69004 17.1319 8.96719 17.1319 9.30648C17.1319 9.64729 16.8544 9.92444 16.5139 9.92444H14.5205C14.2663 9.92444 14.012 9.86345 13.7848 9.74794L11.6274 8.65116C11.5131 8.59321 11.3758 8.59855 11.2668 8.66526C11.1574 8.73274 11.0903 8.85206 11.0903 8.98054V12.7455C11.0903 12.8313 11.12 12.914 11.1745 12.9799L13.0334 15.2421C13.4859 15.7663 13.6704 16.4567 13.5366 17.1521L13.0654 20.2952C13.0029 20.6235 12.7372 20.8694 12.4055 20.9079C12.1684 20.9323 11.9389 20.853 11.7734 20.6833C11.6072 20.5133 11.5306 20.2811 11.5641 20.0406L11.7799 18.3144C11.9088 17.3922 11.6103 16.4811 10.9603 15.8143L10.1925 15.0267C10.1067 14.9391 9.98283 14.8975 9.8616 14.9211C9.74075 14.9429 9.63858 15.0241 9.58902 15.1361L7.28719 20.3925C7.14881 20.7085 6.83621 20.9128 6.4912 20.9128C6.19537 20.9128 5.93156 20.7714 5.76802 20.5251C5.60448 20.2789 5.5755 19.9823 5.68987 19.7093ZM7.65203 21.1526C7.77974 21.0188 7.888 20.8652 7.96501 20.6898L10.0465 15.9363L10.4315 16.3313C10.9199 16.8326 11.1452 17.518 11.0476 18.218L10.8318 19.9441C10.7685 20.3967 10.9138 20.8423 11.2249 21.1751L9.06827 21.1294L7.65203 21.1526ZM16.2616 18.0952L13.7729 21.2292L13.3685 21.2209C13.5812 21.0108 13.7341 20.7367 13.7947 20.4207L14.2659 17.2775C14.4393 16.374 14.1942 15.4564 13.5991 14.7667L11.8299 12.614V9.58439L13.4501 10.4078C13.7802 10.5756 14.1507 10.6648 14.5209 10.6648H16.5143C16.8719 10.6648 17.1952 10.523 17.438 10.2961L18.3533 16.8307C17.5333 16.987 16.7934 17.4254 16.2616 18.0952Z" stroke="#3A893E" stroke-width="0.6" mask="url(#path-1-outside-1_1_1795)"/>
<path d="M9.48987 5.38463C10.7404 5.38463 11.7572 4.36743 11.7572 3.11693C11.7572 1.86635 10.74 0.85 9.48987 0.85C8.23974 0.85 7.22256 1.86677 7.22256 3.11731C7.22256 4.36784 8.23934 5.38463 9.48987 5.38463ZM9.48987 1.88919C10.1668 1.88919 10.7176 2.44 10.7176 3.11693C10.7176 3.79392 10.1668 4.34506 9.48987 4.34506C8.81299 4.34506 8.26213 3.79392 8.26213 3.11693C8.26213 2.44 8.81294 1.88919 9.48987 1.88919Z" fill="#3A893E" stroke="#3A893E" stroke-width="0.3"/>
</svg>
