<svg width="215" height="169" viewBox="0 0 215 169" fill="none" xmlns="http://www.w3.org/2000/svg">
<path d="M110.534 44.6909C111.957 44.2268 112.322 42.837 113 41.7659C120.151 30.4476 126.017 18.4427 131.89 6.43778C132.953 4.26805 133.782 1.9198 135.71 0C138.997 2.38945 141.293 5.49024 143.762 8.39602C156.08 22.903 167.605 38.0691 180.226 52.3234C190.211 63.6005 201.066 73.941 213.344 82.7271C213.8 83.0539 214.222 83.4302 214.612 84.0289C211.864 83.3698 209.079 83.6801 206.339 83.3478C200.83 82.6749 195.387 83.4384 189.947 84.0866C172.271 86.1959 155.8 92.7078 139.041 98.1596C126.549 102.224 114.022 106.116 100.805 107.094C80.4733 108.599 63.9558 101.085 50.6319 85.9734C49.1161 84.2569 47.658 82.4909 46.2822 80.8787C30.9483 78.492 15.6775 78.2118 0.387451 78.3382C22.1032 76.0476 43.8657 74.8694 65.6693 74.4272C67.111 74.397 68.4071 74.6936 69.6868 75.3225C78.6609 79.7279 87.4071 84.526 95.6699 90.214C89.8154 84.1553 83.0161 79.272 75.8517 74.6771C76.8869 73.9081 77.8261 74.1443 78.6911 74.136C89.6066 74.0399 100.525 73.9905 111.44 73.8861C112.89 73.8724 114.162 74.2487 115.425 74.9161C120.785 77.7422 126.143 80.5738 131.322 83.8037C127.837 80.3816 124.155 77.2039 119.981 74.6002C120.033 74.3942 120.088 74.1882 120.14 73.9822C135.529 74.3558 150.915 74.7293 166.304 75.1001L166.318 74.4437C127.821 67.9372 88.997 68.2915 49.6928 69.2308C66.0812 48.6129 80.866 27.1656 96.5734 6.44602C99.1492 7.26996 100.253 9.20349 101.629 10.7553C106.896 16.6959 111.603 23.1584 118.075 28.0527C115.886 33.8697 112.992 39.2007 110.575 44.7431C110.57 44.8749 110.556 45.0013 110.556 45.0068L110.534 44.6937V44.6909ZM138.95 43.4138C142.097 44.2872 144.651 42.3372 147.469 43.0458C152.074 49.3352 158.598 51.8702 166.285 52.4607C166.298 51.0051 165.543 50.5245 164.912 50.0768C161.034 47.3221 159.582 43.3369 159.268 38.8464C159.15 37.1518 158.565 35.9598 157.264 34.8777C153.947 32.1175 150.734 29.2309 147.502 26.4185C148.133 25.1743 149.613 25.6165 150.478 24.1719C146.606 19.6292 143.24 14.474 138.629 10.2691C138.341 14.5564 139.626 18.4619 140.074 22.1752C139.379 24.0263 137.319 24.4767 136.548 26.8936C138.528 28.4317 140.505 29.9725 142.284 31.3539C139.975 35.5094 137.248 38.915 138.95 43.4165V43.4138ZM83.472 31.5654C87.3851 31.6231 90.6694 31.8236 93.9509 31.3869C94.4397 29.6374 94.8543 28.1515 95.2855 26.6053C96.5487 25.7648 97.8311 24.9107 99.292 23.9412C98.7126 20.2966 97.724 16.814 96.0928 13.1282C94.1898 14.5811 92.8964 15.9928 91.7925 17.3633C91.5563 18.6926 92.3939 19.555 92.6163 20.6262C90.0103 24.3504 85.9242 26.8415 83.472 31.5682V31.5654Z" fill="white"/>
<path d="M74.8086 129.467C76.7038 129.77 78.4597 130.363 80.0762 131.244C81.6927 132.129 83.0793 133.227 84.2429 134.54C85.4065 135.854 86.3123 137.342 86.9568 139C87.6013 140.659 87.9253 142.394 87.9253 144.203C87.9253 145.063 87.8591 145.84 87.7302 146.53V146.464C87.4724 148.447 86.807 150.265 85.7339 151.924C84.6609 153.583 83.3754 154.973 81.8704 156.091C82.5149 156.736 83.5008 157.384 84.8316 158.029C85.7305 158.374 86.7199 158.374 87.7964 158.029C88.8694 157.684 89.817 157.147 90.6357 156.412L98.1329 165.332C97.4431 165.977 96.6349 166.517 95.7082 166.949C94.7815 167.381 93.7781 167.733 92.7051 168.015C91.6286 168.294 90.5416 168.489 89.4408 168.597C88.3433 168.705 87.2982 168.757 86.3123 168.757C84.8943 168.757 83.5775 168.618 82.3546 168.335C81.1318 168.053 80.0901 167.677 79.2331 167.203C77.432 166.255 75.8851 165.147 74.5996 163.875C73.3106 162.604 72.2376 161.475 71.3805 160.482L70.8649 159.9V166.426H58.7168V129.328H72.4466C73.3733 129.328 74.1363 129.369 74.739 129.457H74.8052L74.8086 129.467ZM75.5855 144.203C75.5855 143.426 75.3103 142.77 74.7564 142.23C74.2025 141.694 73.5231 141.422 72.7183 141.422H70.8684V147.046H72.7183C73.5266 147.046 74.2059 146.777 74.7564 146.237C75.3068 145.701 75.5855 145.021 75.5855 144.203ZM123.405 129.338V152.865C123.405 154.802 123.008 156.624 122.21 158.325C121.412 160.029 120.335 161.513 118.98 162.785C117.622 164.057 116.05 165.057 114.263 165.788C112.476 166.52 110.57 166.886 108.543 166.886C106.515 166.886 104.609 166.52 102.822 165.788C101.035 165.057 99.4707 164.053 98.1364 162.785C96.8021 161.513 95.736 160.029 94.9383 158.325C94.1404 156.624 93.7433 154.802 93.7433 152.865V129.338H105.891V152.346C105.891 153.035 106.16 153.617 106.7 154.091C107.236 154.565 107.853 154.802 108.543 154.802C109.274 154.802 109.908 154.565 110.448 154.091C110.985 153.617 111.257 153.035 111.257 152.346V129.338H123.405Z" fill="white"/>
<path d="M138.912 128.948C140.72 128.906 142.573 129.004 144.468 129.237C146.364 129.474 148.388 129.958 150.541 130.69C150.499 131.164 150.464 131.561 150.443 131.885C150.422 132.209 150.412 132.544 150.412 132.889C150.412 133.363 150.391 134.269 150.346 135.603C150.304 136.938 150.196 139.007 150.022 141.809C148.771 141.38 147.597 140.969 146.499 140.582C145.402 140.196 144.183 139.892 142.848 139.676C141.943 139.506 141.169 139.46 140.521 139.547C139.873 139.635 139.424 139.784 139.162 140C138.905 140.216 138.849 140.453 139.002 140.711C139.152 140.969 139.553 141.164 140.197 141.293L144.785 143.039C146.078 143.513 147.262 144.105 148.339 144.816C149.415 145.527 150.363 146.335 151.182 147.241C152 148.147 152.634 149.147 153.087 150.245C153.54 151.342 153.767 152.537 153.767 153.83C153.809 155.638 153.509 157.276 152.861 158.743C152.216 160.21 151.332 161.489 150.213 162.59C149.091 163.687 147.747 164.572 146.175 165.238C144.601 165.907 142.911 166.349 141.103 166.562C140.845 166.604 140.458 166.635 139.939 166.66C139.424 166.68 138.905 166.691 138.389 166.691C137.313 166.733 136.278 166.712 135.288 166.625C134.296 166.538 133.414 166.43 132.641 166.301C131.822 166.085 130.864 165.816 129.767 165.492C128.669 165.168 127.192 164.684 125.339 164.039L128.053 152.213C129 152.471 129.916 152.764 130.798 153.084C131.679 153.408 132.564 153.743 133.446 154.088C134.327 154.433 135.222 154.732 136.128 154.994C137.034 155.255 137.981 155.447 138.971 155.576C139.316 155.534 139.619 155.447 139.877 155.318C140.134 155.189 140.309 154.952 140.392 154.607C140.392 154.307 140.284 154.046 140.068 153.83C139.852 153.614 139.594 153.422 139.291 153.248C138.988 153.077 138.654 152.924 138.288 152.795C137.922 152.666 137.588 152.558 137.285 152.471C135.605 152.084 134.055 151.447 132.634 150.565C131.212 149.684 129.986 148.659 128.951 147.495C127.917 146.332 127.108 145.084 126.527 143.746C125.945 142.412 125.656 141.074 125.656 139.739C125.614 137.499 126.29 135.432 127.69 133.533C129.091 131.638 131.299 130.324 134.313 129.593C135.09 129.377 135.853 129.216 136.605 129.108C137.358 129 138.124 128.948 138.898 128.948H138.912Z" fill="white"/>
<path d="M184.079 155.189V166.433H156.811V129.401H184.079V140.645H168.959V143.164H181.623V152.729H168.959V155.185H184.079V155.189Z" fill="white"/>
</svg>
