<svg width="21" height="21" viewBox="0 0 21 21" fill="none" xmlns="http://www.w3.org/2000/svg">
<path d="M19.25 7.87501V13.125C19.25 15.3125 18.8125 16.8438 17.8325 17.8325L12.25 12.25L19.0138 5.48627C19.1713 6.17752 19.25 6.96501 19.25 7.87501Z" stroke="#3A893E" stroke-width="1.5" stroke-linecap="round" stroke-linejoin="round"/>
<path d="M19.0138 5.48625L5.48624 19.0137C2.85249 18.41 1.75 16.59 1.75 13.125V7.875C1.75 3.5 3.5 1.75 7.875 1.75H13.125C16.59 1.75 18.41 2.8525 19.0138 5.48625Z" stroke="#3A893E" stroke-width="1.5" stroke-linecap="round" stroke-linejoin="round"/>
<path d="M17.8325 17.8325C16.8437 18.8125 15.3125 19.25 13.125 19.25H7.87497C6.96497 19.25 6.17746 19.1712 5.48621 19.0137L12.25 12.25L17.8325 17.8325Z" stroke="#3A893E" stroke-width="1.5" stroke-linecap="round" stroke-linejoin="round"/>
<path d="M5.45999 6.98251C6.05499 4.41875 9.90499 4.41875 10.5 6.98251C10.8412 8.48751 9.89623 9.76501 9.06498 10.5525C8.46123 11.13 7.5075 11.13 6.895 10.5525C6.06375 9.76501 5.10999 8.48751 5.45999 6.98251Z" stroke="#3A893E"/>
<path d="M7.95784 7.61249H7.9657" stroke="#3A893E" stroke-width="1.3" stroke-linecap="round" stroke-linejoin="round"/>
</svg>
