<svg width="31" height="31" viewBox="0 0 31 31" fill="none" xmlns="http://www.w3.org/2000/svg">
<path d="M11.8076 10.2835C11.1076 10.2835 10.5576 10.846 10.5576 11.5335C10.5576 12.221 11.1201 12.7835 11.8076 12.7835C12.4951 12.7835 13.0576 12.221 13.0576 11.5335C13.0576 10.846 12.4951 10.2835 11.8076 10.2835Z" fill="#EF5DA8"/>
<path d="M27.1951 7.22102C26.1451 4.78352 23.8326 3.42102 20.6076 3.42102H10.1326C6.12012 3.42102 2.87012 6.67102 2.87012 10.6835V21.1585C2.87012 24.3835 4.23262 26.696 6.67012 27.746C6.90762 27.846 7.18262 27.7835 7.35762 27.6085L27.0576 7.90852C27.2451 7.72102 27.3076 7.44602 27.1951 7.22102ZM13.5326 16.221C13.0451 16.696 12.4076 16.921 11.7701 16.921C11.1326 16.921 10.4951 16.6835 10.0076 16.221C8.73262 15.021 7.33262 13.1085 7.87012 10.8335C8.34512 8.77102 10.1701 7.84602 11.7701 7.84602C13.3701 7.84602 15.1951 8.77102 15.6701 10.846C16.1951 13.1085 14.7951 15.021 13.5326 16.221Z" fill="#EF5DA8"/>
<path d="M24.7077 26.5835C24.9827 26.8585 24.9452 27.3085 24.6077 27.496C23.5077 28.1085 22.1702 28.421 20.6077 28.421H10.1327C9.77023 28.421 9.62023 27.996 9.87023 27.746L17.4202 20.196C17.6702 19.946 18.0577 19.946 18.3077 20.196L24.7077 26.5835Z" fill="#EF5DA8"/>
<path d="M27.8701 10.6835V21.1585C27.8701 22.721 27.5576 24.071 26.9451 25.1585C26.7576 25.496 26.3076 25.521 26.0326 25.2585L19.6326 18.8585C19.3826 18.6085 19.3826 18.221 19.6326 17.971L27.1826 10.421C27.4451 10.171 27.8701 10.321 27.8701 10.6835Z" fill="#EF5DA8"/>
</svg>
