<svg width="21" height="21" viewBox="0 0 21 21" fill="none" xmlns="http://www.w3.org/2000/svg">
<path d="M19.25 7.87501V13.125C19.25 15.3125 18.8125 16.8438 17.8325 17.8325L12.25 12.25L19.0138 5.48627C19.1713 6.17752 19.25 6.96501 19.25 7.87501Z" stroke="white" stroke-width="1.5" stroke-linecap="round" stroke-linejoin="round"/>
<path d="M19.0138 5.48625L5.48624 19.0137C2.85249 18.41 1.75 16.59 1.75 13.125V7.875C1.75 3.5 3.5 1.75 7.875 1.75H13.125C16.59 1.75 18.41 2.8525 19.0138 5.48625Z" stroke="white" stroke-width="1.5" stroke-linecap="round" stroke-linejoin="round"/>
<path d="M17.8326 17.8325C16.8438 18.8125 15.3126 19.25 13.1251 19.25H7.87509C6.96509 19.25 6.17758 19.1712 5.48633 19.0137L12.2501 12.25L17.8326 17.8325Z" stroke="white" stroke-width="1.5" stroke-linecap="round" stroke-linejoin="round"/>
<path d="M5.46011 6.98251C6.05511 4.41875 9.90512 4.41875 10.5001 6.98251C10.8414 8.48751 9.89635 9.76501 9.0651 10.5525C8.46135 11.13 7.50762 11.13 6.89512 10.5525C6.06387 9.76501 5.11011 8.48751 5.46011 6.98251Z" stroke="white"/>
<path d="M7.95784 7.61249H7.9657" stroke="white" stroke-width="1.3" stroke-linecap="round" stroke-linejoin="round"/>
</svg>
