<svg width="20" height="20" viewBox="0 0 20 20" fill="none" xmlns="http://www.w3.org/2000/svg">
<path d="M15.3917 14.025L15.7167 16.6583C15.8 17.35 15.0584 17.8333 14.4667 17.475L10.975 15.4C10.5917 15.4 10.2167 15.375 9.85004 15.325C10.4667 14.6 10.8334 13.6833 10.8334 12.6916C10.8334 10.325 8.78337 8.40835 6.25004 8.40835C5.28337 8.40835 4.39171 8.68333 3.65004 9.16666C3.62504 8.95833 3.6167 8.74999 3.6167 8.53332C3.6167 4.74166 6.90837 1.66666 10.975 1.66666C15.0417 1.66666 18.3334 4.74166 18.3334 8.53332C18.3334 10.7833 17.175 12.775 15.3917 14.025Z" stroke="#36863F" stroke-width="1.5" stroke-linecap="round" stroke-linejoin="round"/>
<path d="M10.8333 12.6917C10.8333 13.6833 10.4666 14.6 9.84997 15.325C9.02497 16.325 7.71663 16.9667 6.24996 16.9667L4.07496 18.2583C3.70829 18.4833 3.24162 18.175 3.29162 17.75L3.49996 16.1083C2.38329 15.3333 1.66663 14.0917 1.66663 12.6917C1.66663 11.225 2.44996 9.93333 3.64996 9.16667C4.39163 8.68333 5.28329 8.40836 6.24996 8.40836C8.78329 8.40836 10.8333 10.325 10.8333 12.6917Z" stroke="#36863F" stroke-width="1.5" stroke-linecap="round" stroke-linejoin="round"/>
</svg>
