<svg width="22" height="22" viewBox="0 0 22 22" fill="none" xmlns="http://www.w3.org/2000/svg">
<path d="M16.9308 15.4275L17.2883 18.3242C17.3799 19.085 16.5641 19.6167 15.9133 19.2225L12.0724 16.94C11.6508 16.94 11.2383 16.9125 10.8349 16.8575C11.5133 16.06 11.9166 15.0517 11.9166 13.9608C11.9166 11.3575 9.66161 9.24921 6.87494 9.24921C5.81161 9.24921 4.83078 9.55169 4.01495 10.0834C3.98745 9.85419 3.97827 9.62501 3.97827 9.38668C3.97827 5.21585 7.59911 1.83336 12.0724 1.83336C16.5458 1.83336 20.1666 5.21585 20.1666 9.38668C20.1666 11.8617 18.8924 14.0525 16.9308 15.4275Z" stroke="white" stroke-width="1.2" stroke-linecap="round" stroke-linejoin="round"/>
<path d="M11.9166 13.9608C11.9166 15.0516 11.5133 16.06 10.8349 16.8575C9.92743 17.9575 8.48825 18.6633 6.87492 18.6633L4.48242 20.0841C4.07908 20.3316 3.56575 19.9925 3.62075 19.525L3.84992 17.7191C2.62158 16.8666 1.83325 15.5008 1.83325 13.9608C1.83325 12.3474 2.69492 10.9266 4.01492 10.0833C4.83076 9.55163 5.81159 9.24916 6.87492 9.24916C9.66159 9.24916 11.9166 11.3574 11.9166 13.9608Z" stroke="white" stroke-width="1.2" stroke-linecap="round" stroke-linejoin="round"/>
</svg>
