<svg width="20" height="20" viewBox="0 0 20 20" fill="none" xmlns="http://www.w3.org/2000/svg">
<path d="M11.6666 4.16654C11.6666 3.24988 10.9166 2.49988 9.99996 2.49988C9.08329 2.49988 8.33329 3.24988 8.33329 4.16654C8.33329 5.08321 9.08329 5.83321 9.99996 5.83321C10.9166 5.83321 11.6666 5.08321 11.6666 4.16654Z" fill="#1F1D1D"/>
<path d="M11.6666 15.8332C11.6666 14.9166 10.9166 14.1666 9.99996 14.1666C9.08329 14.1666 8.33329 14.9166 8.33329 15.8332C8.33329 16.7499 9.08329 17.4999 9.99996 17.4999C10.9166 17.4999 11.6666 16.7499 11.6666 15.8332Z" fill="#1F1D1D"/>
<path d="M11.6666 9.99986C11.6666 9.08319 10.9166 8.33319 9.99996 8.33319C9.08329 8.33319 8.33329 9.08319 8.33329 9.99986C8.33329 10.9165 9.08329 11.6665 9.99996 11.6665C10.9166 11.6665 11.6666 10.9165 11.6666 9.99986Z" fill="#1F1D1D"/>
</svg>
