<svg width="18" height="18" viewBox="0 0 18 18" fill="none" xmlns="http://www.w3.org/2000/svg">
<path d="M9.2041 5.14203V7.45264" stroke="#232527" stroke-width="1.5" stroke-miterlimit="10" stroke-linecap="round"/>
<path d="M9.21795 2.06116C6.66448 2.06116 4.59673 4.12891 4.59673 6.68238V8.13952C4.59673 8.61136 4.40244 9.31912 4.15958 9.72157L3.27836 11.1926C2.73713 12.1016 3.11183 13.1146 4.11101 13.4477C7.42775 14.551 11.0151 14.551 14.3318 13.4477C15.2686 13.1354 15.671 12.0391 15.1645 11.1926L14.2833 9.72157C14.0404 9.31912 13.8461 8.60442 13.8461 8.13952V6.68238C13.8392 4.14279 11.7575 2.06116 9.21795 2.06116Z" stroke="#232527" stroke-width="1.5" stroke-miterlimit="10" stroke-linecap="round"/>
<path d="M11.5147 13.7322C11.5147 15.002 10.4738 16.0429 9.20404 16.0429C8.57262 16.0429 7.98976 15.7792 7.57343 15.3629C7.15711 14.9465 6.89343 14.3637 6.89343 13.7322" stroke="#232527" stroke-width="1.5" stroke-miterlimit="10"/>
</svg>
