<svg width="14" height="14" viewBox="0 0 14 14" fill="none" xmlns="http://www.w3.org/2000/svg">
<path d="M6.4285 11.375H4.37516C4.0135 11.375 3.69266 11.3633 3.40683 11.3225C1.87266 11.1533 1.4585 10.43 1.4585 8.45833V5.54167C1.4585 3.57 1.87266 2.84667 3.40683 2.6775C3.69266 2.63667 4.0135 2.625 4.37516 2.625H6.3935" stroke="#3A893E" stroke-linecap="round" stroke-linejoin="round"/>
<path d="M8.76172 2.625H9.62505C9.98672 2.625 10.3076 2.63667 10.5934 2.6775C12.1276 2.84667 12.5417 3.57 12.5417 5.54167V8.45833C12.5417 10.43 12.1276 11.1533 10.5934 11.3225C10.3076 11.3633 9.98672 11.375 9.62505 11.375H8.76172" stroke="#3A893E" stroke-linecap="round" stroke-linejoin="round"/>
<path d="M8.75 1.16666V12.8333" stroke="#3A893E" stroke-linecap="round" stroke-linejoin="round"/>
<path d="M6.47181 7.00001H6.47705" stroke="#3A893E" stroke-linecap="round" stroke-linejoin="round"/>
<path d="M4.13856 7.00001H4.1438" stroke="#3A893E" stroke-linecap="round" stroke-linejoin="round"/>
</svg>
