<svg width="11" height="14" viewBox="0 0 11 14" fill="none" xmlns="http://www.w3.org/2000/svg">
<path d="M5.5587 0C4.16221 0 2.82291 0.558863 1.83544 1.55364C0.847968 2.54843 0.293213 3.89764 0.293213 5.30447C0.293213 8.88499 4.93342 12.9297 5.13088 13.102C5.2501 13.2048 5.40182 13.2612 5.5587 13.2612C5.71558 13.2612 5.8673 13.2048 5.98652 13.102C6.21688 12.9297 10.8242 8.88499 10.8242 5.30447C10.8242 3.89764 10.2694 2.54843 9.28196 1.55364C8.29449 0.558863 6.95519 0 5.5587 0ZM5.5587 11.703C4.15676 10.3769 1.60958 7.51909 1.60958 5.30447C1.60958 4.24935 2.02565 3.23744 2.76625 2.49135C3.50686 1.74527 4.51133 1.32612 5.5587 1.32612C6.60607 1.32612 7.61054 1.74527 8.35115 2.49135C9.09175 3.23744 9.50781 4.24935 9.50781 5.30447C9.50781 7.51909 6.96063 10.3835 5.5587 11.703ZM5.5587 2.65224C5.03799 2.65224 4.52898 2.80779 4.09603 3.09922C3.66307 3.39065 3.32563 3.80487 3.12636 4.28951C2.9271 4.77414 2.87496 5.30741 2.97654 5.8219C3.07813 6.33638 3.32887 6.80896 3.69707 7.17989C4.06526 7.55081 4.53437 7.80341 5.04508 7.90575C5.55578 8.00808 6.08514 7.95556 6.56621 7.75482C7.04728 7.55408 7.45846 7.21413 7.74775 6.77798C8.03703 6.34182 8.19144 5.82904 8.19144 5.30447C8.19144 4.60106 7.91406 3.92645 7.42033 3.42906C6.92659 2.93167 6.25695 2.65224 5.5587 2.65224ZM5.5587 6.63059C5.29835 6.63059 5.04384 6.55281 4.82736 6.4071C4.61089 6.26138 4.44216 6.05427 4.34253 5.81196C4.2429 5.56964 4.21683 5.303 4.26762 5.04576C4.31841 4.78852 4.44379 4.55223 4.62788 4.36677C4.81198 4.1813 5.04654 4.055 5.30189 4.00384C5.55724 3.95267 5.82192 3.97893 6.06245 4.0793C6.30299 4.17967 6.50858 4.34964 6.65322 4.56772C6.79787 4.7858 6.87507 5.04219 6.87507 5.30447C6.87507 5.65618 6.73638 5.99348 6.48951 6.24218C6.24265 6.49087 5.90782 6.63059 5.5587 6.63059Z" fill="#979797"/>
</svg>
