<svg width="94" height="48" viewBox="0 0 94 48" fill="none" xmlns="http://www.w3.org/2000/svg">
<path d="M48.3315 19.9953C48.9556 19.7877 49.1159 19.1659 49.4135 18.6867C52.5512 13.6227 55.1249 8.25152 57.7023 2.88035C58.1686 1.90959 58.5325 0.858945 59.3784 0C60.8207 1.06907 61.828 2.45641 62.9113 3.7565C68.3166 10.2471 73.3738 17.0327 78.9117 23.4102C83.2929 28.4558 88.056 33.0823 93.4433 37.0133C93.6433 37.1595 93.8289 37.3278 94 37.5957C92.7939 37.3008 91.572 37.4397 90.3695 37.291C87.9524 36.9899 85.5642 37.3315 83.1772 37.6215C75.421 38.5653 68.1937 41.4788 60.84 43.918C55.3587 45.7367 49.8617 47.4779 44.0623 47.9153C35.141 48.5887 27.8932 45.2267 22.0468 38.4657C21.3817 37.6977 20.7419 36.9076 20.1382 36.1863C13.4098 35.1184 6.70912 34.9931 0 35.0496C9.52869 34.0248 19.0779 33.4976 28.6451 33.2998C29.2777 33.2863 29.8464 33.419 30.4079 33.7004C34.3457 35.6714 38.1834 37.8181 41.8091 40.363C39.2402 37.6523 36.2567 35.4674 33.113 33.4116C33.5673 33.0675 33.9794 33.1732 34.3589 33.1695C39.1486 33.1265 43.9394 33.1044 48.7291 33.0577C49.3653 33.0516 49.9232 33.2199 50.4775 33.5185C52.8295 34.783 55.1804 36.0499 57.4529 37.495C55.9238 35.9639 54.308 34.5421 52.4765 33.3772C52.4994 33.285 52.5235 33.1929 52.5464 33.1007C59.2989 33.2678 66.0501 33.4349 72.8027 33.6008L72.8087 33.3071C55.9166 30.3961 38.8811 30.5546 21.6347 30.9748C28.8258 21.7501 35.3133 12.1543 42.2055 2.88404C43.3358 3.25268 43.8202 4.11777 44.4238 4.81206C46.7349 7.46999 48.8002 10.3614 51.6402 12.5512C50.6799 15.1538 49.4099 17.5389 48.3495 20.0187C48.3471 20.0777 48.3411 20.1342 48.3411 20.1367L48.3315 19.9966V19.9953ZM60.8002 19.4239C62.1811 19.8147 63.3017 18.9423 64.5379 19.2593C66.5586 22.0733 69.4216 23.2075 72.7942 23.4717C72.8002 22.8204 72.4689 22.6054 72.1917 22.4051C70.4904 21.1726 69.853 19.3895 69.7156 17.3804C69.6638 16.6222 69.4071 16.0889 68.836 15.6048C67.3804 14.3698 65.9706 13.0783 64.5524 11.82C64.8295 11.2634 65.479 11.4612 65.8586 10.8148C64.1596 8.78237 62.6823 6.47588 60.6592 4.59456C60.5327 6.51274 61.0966 8.26012 61.293 9.92149C60.9882 10.7497 60.0845 10.9512 59.7459 12.0326C60.6147 12.7207 61.4822 13.4101 62.263 14.0282C61.2497 15.8874 60.0531 17.4111 60.8002 19.4252V19.4239ZM36.4567 14.1228C38.1738 14.1486 39.6149 14.2383 41.0548 14.0429C41.2693 13.2602 41.4512 12.5954 41.6404 11.9036C42.1947 11.5276 42.7574 11.1454 43.3984 10.7116C43.1442 9.08097 42.7104 7.52283 41.9947 5.87376C41.1596 6.5238 40.5921 7.15541 40.1077 7.7686C40.0041 8.36334 40.3716 8.74919 40.4692 9.22843C39.3257 10.8947 37.5328 12.0092 36.4567 14.124V14.1228Z" fill="white"/>
</svg>
