<svg width="13" height="13" viewBox="0 0 13 13" fill="none" xmlns="http://www.w3.org/2000/svg">
<path d="M7.4371 1.90126L8.39043 3.80792C8.52043 4.07334 8.8671 4.32792 9.1596 4.37667L10.8875 4.66376C11.9925 4.84792 12.2525 5.64959 11.4563 6.44042L10.1129 7.78376C9.88543 8.01126 9.76084 8.45001 9.83126 8.76417L10.2158 10.4271C10.5192 11.7433 9.82043 12.2525 8.65585 11.5646L7.03626 10.6058C6.74376 10.4325 6.26168 10.4325 5.96376 10.6058L4.34418 11.5646C3.18501 12.2525 2.48085 11.7379 2.78418 10.4271L3.16876 8.76417C3.23918 8.45001 3.1146 8.01126 2.8871 7.78376L1.54376 6.44042C0.752928 5.64959 1.00751 4.84792 2.11251 4.66376L3.84043 4.37667C4.12751 4.32792 4.47418 4.07334 4.60418 3.80792L5.55751 1.90126C6.07751 0.866675 6.92251 0.866675 7.4371 1.90126Z" stroke="#3A893E" stroke-width="1.5" stroke-linecap="round" stroke-linejoin="round"/>
</svg>
