<svg width="649" height="325" viewBox="0 0 649 325" fill="none" xmlns="http://www.w3.org/2000/svg">
<path d="M333.693 135.385C338.002 133.979 339.109 129.769 341.163 126.524C362.827 92.237 380.597 55.8697 398.391 19.5024C401.611 12.9295 404.123 5.81577 409.964 0C419.922 7.23851 426.876 16.6319 434.355 25.4346C471.676 69.3816 506.591 115.325 544.827 158.507C575.075 192.669 607.961 223.995 645.156 250.611C646.538 251.601 647.819 252.741 649 254.554C640.672 252.558 632.237 253.498 623.934 252.491C607.246 250.453 590.757 252.766 574.277 254.729C520.726 261.119 470.827 280.846 420.055 297.361C382.211 309.675 344.258 321.465 304.218 324.427C242.622 328.986 192.582 306.222 152.217 260.445C147.625 255.245 143.207 249.895 139.039 245.011C92.5847 237.781 46.3215 236.932 0 237.315C65.7885 230.376 131.718 226.807 197.773 225.467C202.141 225.376 206.067 226.274 209.944 228.18C237.131 241.525 263.628 256.06 288.661 273.291C270.924 254.937 250.326 240.144 228.621 226.224C231.757 223.895 234.602 224.61 237.223 224.585C270.292 224.294 303.369 224.144 336.438 223.828C340.831 223.787 344.682 224.926 348.509 226.948C364.748 235.51 380.979 244.088 396.669 253.872C386.112 243.505 374.956 233.879 362.311 225.991C362.469 225.367 362.635 224.743 362.793 224.119C409.414 225.251 456.027 226.382 502.648 227.506L502.69 225.517C386.062 205.807 268.445 206.88 149.372 209.726C199.021 147.266 243.812 82.2944 291.398 19.5273C299.201 22.0234 302.546 27.8808 306.713 32.5816C322.67 50.5781 336.929 70.1553 356.537 84.9818C349.907 102.604 341.138 118.753 333.818 135.543C333.801 135.943 333.759 136.325 333.759 136.342L333.693 135.393V135.385ZM419.78 131.516C429.314 134.162 437.051 128.255 445.586 130.401C459.538 149.455 479.304 157.134 502.59 158.923C502.631 154.513 500.344 153.057 498.43 151.701C486.683 143.356 482.283 131.283 481.334 117.68C480.976 112.546 479.204 108.935 475.261 105.657C465.212 97.2956 455.478 88.5511 445.686 80.0313C447.6 76.2623 452.084 77.6019 454.704 73.2255C442.974 59.464 432.775 43.8471 418.807 31.109C417.933 44.0967 421.827 55.9279 423.183 67.1767C421.078 72.7845 414.839 74.149 412.501 81.4707C418.499 86.13 424.489 90.7976 429.88 94.9826C422.883 107.571 414.622 117.888 419.78 131.525V131.516ZM251.707 95.6233C263.562 95.798 273.511 96.4053 283.453 95.0825C284.934 89.7825 286.19 85.2813 287.496 80.5971C291.323 78.0511 295.208 75.4636 299.634 72.5266C297.878 61.4858 294.884 50.9358 289.942 39.7702C284.177 44.1716 280.258 48.4481 276.914 52.5999C276.199 56.6268 278.736 59.2393 279.41 62.4842C271.515 73.7663 259.136 81.3126 251.707 95.6316V95.6233Z" fill="white" fill-opacity="0.1"/>
</svg>
