<svg width="14" height="14" viewBox="0 0 14 14" fill="none" xmlns="http://www.w3.org/2000/svg">
<path d="M1.16675 12.8333H12.8334" stroke="#3A893E" stroke-linecap="round" stroke-linejoin="round"/>
<path d="M1.81421 12.8333V7.58334C1.81421 6.61501 2.68338 5.83334 3.75671 5.83334H10.2375C11.3109 5.83334 12.18 6.61501 12.18 7.58334V12.8333" stroke="#3A893E" stroke-linecap="round" stroke-linejoin="round"/>
<path d="M3.24316 5.83332V4.18249C3.24316 3.48249 3.87316 2.91666 4.65483 2.91666H9.35066C10.1265 2.91666 10.7565 3.48249 10.7565 4.18249V5.83332" stroke="#3A893E" stroke-linecap="round" stroke-linejoin="round"/>
<path d="M2.05908 8.155L2.27492 8.16083C2.70658 8.16667 3.05075 8.51667 3.05075 8.94833V9.14083C3.05075 9.5725 3.40075 9.92833 3.83825 9.92833C4.26992 9.92833 4.62575 9.57833 4.62575 9.14083V8.96C4.62575 8.52833 4.97575 8.1725 5.41325 8.1725C5.84492 8.1725 6.20075 8.5225 6.20075 8.96V9.14083C6.20075 9.5725 6.55075 9.92833 6.98825 9.92833C7.41992 9.92833 7.77575 9.57833 7.77575 9.14083V8.96C7.77575 8.52833 8.12575 8.1725 8.56325 8.1725C8.99492 8.1725 9.35075 8.5225 9.35075 8.96V9.14083C9.35075 9.5725 9.70075 9.92833 10.1382 9.92833C10.5699 9.92833 10.9257 9.57833 10.9257 9.14083V8.96C10.9257 8.52833 11.2757 8.1725 11.7132 8.1725H11.9757" stroke="#3A893E" stroke-linecap="round" stroke-linejoin="round"/>
<path d="M4.66675 2.91667V1.75" stroke="#3A893E" stroke-linecap="round" stroke-linejoin="round"/>
<path d="M9.33325 2.91667V1.75" stroke="#3A893E" stroke-linecap="round" stroke-linejoin="round"/>
<path d="M7 2.91666V1.16666" stroke="#3A893E" stroke-linecap="round" stroke-linejoin="round"/>
</svg>
