<svg width="22" height="22" viewBox="0 0 22 22" fill="none" xmlns="http://www.w3.org/2000/svg">
<path d="M16.5 6.56336C16.445 6.55419 16.3808 6.55419 16.3258 6.56336C15.0608 6.51753 14.0525 5.48169 14.0525 4.19836C14.0525 2.88752 15.1067 1.83336 16.4175 1.83336C17.7283 1.83336 18.7825 2.89669 18.7825 4.19836C18.7733 5.48169 17.765 6.51753 16.5 6.56336Z" stroke="white" stroke-width="1.2" stroke-linecap="round" stroke-linejoin="round"/>
<path d="M15.5558 13.2367C16.8117 13.4475 18.1958 13.2275 19.1675 12.5767C20.46 11.715 20.46 10.3034 19.1675 9.44169C18.1867 8.79085 16.7842 8.57085 15.5283 8.79085" stroke="white" stroke-width="1.2" stroke-linecap="round" stroke-linejoin="round"/>
<path d="M5.47269 6.56336C5.52769 6.55419 5.59185 6.55419 5.64685 6.56336C6.91185 6.51753 7.92019 5.48169 7.92019 4.19836C7.92019 2.88752 6.86602 1.83336 5.55519 1.83336C4.24435 1.83336 3.19019 2.89669 3.19019 4.19836C3.19935 5.48169 4.20769 6.51753 5.47269 6.56336Z" stroke="white" stroke-width="1.2" stroke-linecap="round" stroke-linejoin="round"/>
<path d="M6.41673 13.2367C5.1609 13.4475 3.77673 13.2275 2.80507 12.5767C1.51257 11.715 1.51257 10.3034 2.80507 9.44169C3.7859 8.79085 5.1884 8.57085 6.44423 8.79085" stroke="white" stroke-width="1.2" stroke-linecap="round" stroke-linejoin="round"/>
<path d="M11 13.4108C10.945 13.4017 10.8808 13.4017 10.8258 13.4108C9.56082 13.365 8.55249 12.3292 8.55249 11.0458C8.55249 9.735 9.60666 8.68083 10.9175 8.68083C12.2283 8.68083 13.2825 9.74416 13.2825 11.0458C13.2733 12.3292 12.265 13.3742 11 13.4108Z" stroke="white" stroke-width="1.2" stroke-linecap="round" stroke-linejoin="round"/>
<path d="M8.33241 16.2983C7.03991 17.16 7.03991 18.5717 8.33241 19.4333C9.79908 20.4142 12.2007 20.4142 13.6674 19.4333C14.9599 18.5717 14.9599 17.16 13.6674 16.2983C12.2099 15.3267 9.79908 15.3267 8.33241 16.2983Z" stroke="white" stroke-width="1.2" stroke-linecap="round" stroke-linejoin="round"/>
</svg>
